<?xml version="1.0" standalone="no"?><svg xmlns="http://www.w3.org/2000/svg" viewBox="0 0 1440 320"><path fill="#e7008a" fill-opacity="1" d="M0,0L24,26.7C48,53,96,107,144,117.3C192,128,240,96,288,96C336,96,384,128,432,165.3C480,203,528,245,576,240C624,235,672,181,720,144C768,107,816,85,864,90.7C912,96,960,128,1008,165.3C1056,203,1104,245,1152,224C1200,203,1248,117,1296,85.3C1344,53,1392,75,1416,85.3L1440,96L1440,320L1416,320C1392,320,1344,320,1296,320C1248,320,1200,320,1152,320C1104,320,1056,320,1008,320C960,320,912,320,864,320C816,320,768,320,720,320C672,320,624,320,576,320C528,320,480,320,432,320C384,320,336,320,288,320C240,320,192,320,144,320C96,320,48,320,24,320L0,320Z"></path></svg>