<?xml version="1.0" standalone="no"?><svg xmlns="http://www.w3.org/2000/svg" viewBox="0 0 1440 320"><path fill="#ff5500" fill-opacity="1" d="M0,64L30,80C60,96,120,128,180,122.7C240,117,300,75,360,80C420,85,480,139,540,154.7C600,171,660,149,720,138.7C780,128,840,128,900,149.3C960,171,1020,213,1080,208C1140,203,1200,149,1260,144C1320,139,1380,181,1410,202.7L1440,224L1440,320L1410,320C1380,320,1320,320,1260,320C1200,320,1140,320,1080,320C1020,320,960,320,900,320C840,320,780,320,720,320C660,320,600,320,540,320C480,320,420,320,360,320C300,320,240,320,180,320C120,320,60,320,30,320L0,320Z"></path></svg>