<?xml version="1.0" standalone="no"?><svg xmlns="http://www.w3.org/2000/svg" viewBox="0 0 1440 320"><path fill="#00cba9" fill-opacity="1" d="M0,0L24,26.7C48,53,96,107,144,117.3C192,128,240,96,288,96C336,96,384,128,432,165.3C480,203,528,245,576,240C624,235,672,181,720,144C768,107,816,85,864,90.7C912,96,960,128,1008,165.3C1056,203,1104,245,1152,224C1200,203,1248,117,1296,85.3C1344,53,1392,75,1416,85.3L1440,96L1440,0L1416,0C1392,0,1344,0,1296,0C1248,0,1200,0,1152,0C1104,0,1056,0,1008,0C960,0,912,0,864,0C816,0,768,0,720,0C672,0,624,0,576,0C528,0,480,0,432,0C384,0,336,0,288,0C240,0,192,0,144,0C96,0,48,0,24,0L0,0Z"></path></svg>